<?xml version="1.0" standalone="no"?><svg xmlns="http://www.w3.org/2000/svg" viewBox="0 0 1440 320"><path fill="#1abc9c" fill-opacity="1" d="M0,96L0,288L60,288L60,192L120,192L120,160L180,160L180,288L240,288L240,160L300,160L300,288L360,288L360,128L420,128L420,0L480,0L480,96L540,96L540,192L600,192L600,192L660,192L660,96L720,96L720,0L780,0L780,224L840,224L840,64L900,64L900,128L960,128L960,192L1020,192L1020,224L1080,224L1080,160L1140,160L1140,256L1200,256L1200,64L1260,64L1260,224L1320,224L1320,32L1380,32L1380,288L1440,288L1440,320L1380,320L1380,320L1320,320L1320,320L1260,320L1260,320L1200,320L1200,320L1140,320L1140,320L1080,320L1080,320L1020,320L1020,320L960,320L960,320L900,320L900,320L840,320L840,320L780,320L780,320L720,320L720,320L660,320L660,320L600,320L600,320L540,320L540,320L480,320L480,320L420,320L420,320L360,320L360,320L300,320L300,320L240,320L240,320L180,320L180,320L120,320L120,320L60,320L60,320L0,320L0,320Z"></path></svg>